<svg xmlns="http://www.w3.org/2000/svg" width="460.033" height="194.191" viewBox="0 0 460.033 194.191">
  <g id="WEEF_" data-name="WEEF!" transform="translate(-139.37 -141.922)">
    <g id="Group_70" data-name="Group 70">
      <g id="Group_57" data-name="Group 57">
        <g id="Group_54" data-name="Group 54">
          <g id="Group_53" data-name="Group 53">
            <g id="Group_49" data-name="Group 49">
              <g id="Group_39" data-name="Group 39">
                <g id="Group_38" data-name="Group 38">
                  <path id="Path_66" data-name="Path 66" d="M356.38,161.025a5.686,5.686,0,0,1-5.669,5.669h-65.2a5.686,5.686,0,0,1-5.669-5.669V147.7a5.686,5.686,0,0,1,5.669-5.669h65.2a5.686,5.686,0,0,1,5.669,5.669Zm-5.669,69.736a5.686,5.686,0,0,1,5.669,5.669v13.323a5.686,5.686,0,0,1-5.669,5.669h-65.2a5.686,5.686,0,0,1-5.669-5.669V236.43a5.686,5.686,0,0,1,5.669-5.669h65.2Z" fill="#3c3c3b"/>
                </g>
              </g>
              <g id="Group_41" data-name="Group 41">
                <g id="Group_40" data-name="Group 40">
                  <path id="Path_67" data-name="Path 67" d="M443.034,161.025a5.686,5.686,0,0,1-5.669,5.669h-65.2a5.686,5.686,0,0,1-5.669-5.669V147.7a5.686,5.686,0,0,1,5.669-5.669h65.2a5.686,5.686,0,0,1,5.669,5.669Zm-5.67,69.736a5.686,5.686,0,0,1,5.669,5.669v13.323a5.686,5.686,0,0,1-5.669,5.669h-65.2a5.686,5.686,0,0,1-5.669-5.669V236.43a5.686,5.686,0,0,1,5.669-5.669h65.2Z" fill="#3c3c3b"/>
                </g>
              </g>
              <g id="Group_43" data-name="Group 43">
                <g id="Group_42" data-name="Group 42">
                  <path id="Path_68" data-name="Path 68" d="M452.084,147.7a5.686,5.686,0,0,1,5.669-5.669H523.1a5.686,5.686,0,0,1,5.669,5.669v13.324a5.686,5.686,0,0,1-5.669,5.669H457.753a5.686,5.686,0,0,1-5.669-5.669V147.7Zm0,45.356a5.686,5.686,0,0,1,5.669-5.669h39.775a5.686,5.686,0,0,1,5.669,5.669v10.915a5.686,5.686,0,0,1-5.669,5.669H457.753a5.686,5.686,0,0,1-5.669-5.669Z" fill="#3c3c3b"/>
                </g>
              </g>
              <g id="Group_48" data-name="Group 48">
                <g id="Group_45" data-name="Group 45">
                  <g id="Group_44" data-name="Group 44">
                    <path id="Path_69" data-name="Path 69" d="M575.94,209.268a5.686,5.686,0,0,1-7.465,2.924l-13.118-5.733a5.686,5.686,0,0,1-2.924-7.465l22.991-52.6a5.686,5.686,0,0,1,7.465-2.924l13.119,5.733a5.688,5.688,0,0,1,2.924,7.465Z" fill="#3c3c3b"/>
                  </g>
                </g>
                <g id="Group_47" data-name="Group 47">
                  <g id="Group_46" data-name="Group 46">
                    <path id="Path_70" data-name="Path 70" d="M557.831,250.7a5.686,5.686,0,0,1-7.465,2.924l-13.118-5.734a5.686,5.686,0,0,1-2.924-7.465l5.337-12.208a5.686,5.686,0,0,1,7.465-2.924l13.117,5.733a5.688,5.688,0,0,1,2.924,7.466Z" fill="#3c3c3b"/>
                  </g>
                </g>
              </g>
            </g>
            <g id="Group_52" data-name="Group 52">
              <g id="Group_50" data-name="Group 50">
                <path id="Path_71" data-name="Path 71" d="M162.982,141.922a9.373,9.373,0,0,1,7.943,5.164l33.438,76.357a14.788,14.788,0,0,1-.012,10.381l-9.166,20.8c-1.258,2.854-3.309,2.851-4.559-.006l-47-107.391c-1.25-2.856.278-5.207,3.4-5.224Z" fill="#3c3c3b"/>
              </g>
              <g id="Group_51" data-name="Group 51">
                <path id="Path_72" data-name="Path 72" d="M208.339,141.922a9.373,9.373,0,0,1,7.943,5.164l33.438,76.357a14.788,14.788,0,0,1-.012,10.381l-9.166,20.8c-1.258,2.854-3.309,2.851-4.559-.006l-47-107.392c-1.25-2.856.278-5.207,3.4-5.224Z" fill="#3c3c3b"/>
              </g>
            </g>
          </g>
        </g>
        <g id="Group_55" data-name="Group 55">
          <path id="Path_73" data-name="Path 73" d="M417.465,205.1a5.686,5.686,0,0,1-5.669,5.669H372.163a5.686,5.686,0,0,1-5.669-5.669V193.057a5.686,5.686,0,0,1,5.669-5.669H411.8a5.686,5.686,0,0,1,5.669,5.669Z" fill="#3c3c3b"/>
        </g>
        <g id="Group_56" data-name="Group 56">
          <path id="Path_74" data-name="Path 74" d="M330.725,205.1a5.686,5.686,0,0,1-5.669,5.669H285.51a5.686,5.686,0,0,1-5.669-5.669V193.057a5.686,5.686,0,0,1,5.669-5.669h39.546a5.686,5.686,0,0,1,5.669,5.669Z" fill="#3c3c3b"/>
        </g>
      </g>
      <g id="Group_69" data-name="Group 69" opacity="0.5">
        <g id="Group_68" data-name="Group 68">
          <g id="Group_59" data-name="Group 59" opacity="0.5">
            <g id="Group_58" data-name="Group 58">
              <path id="Path_75" data-name="Path 75" d="M557.831,250.7a5.686,5.686,0,0,1-7.465,2.924l-13.119-5.734a5.686,5.686,0,0,1-2.924-7.465l22.539-51.564a5.686,5.686,0,0,1,7.465-2.924l13.119,5.734a5.686,5.686,0,0,1,2.924,7.465Z" fill="#f39200"/>
            </g>
          </g>
          <g id="Group_60" data-name="Group 60">
            <path id="Path_76" data-name="Path 76" d="M305.409,249.392a5.686,5.686,0,0,1-5.669,5.669H285.51a5.686,5.686,0,0,1-5.669-5.669V147.7a5.686,5.686,0,0,1,5.669-5.669h14.229a5.686,5.686,0,0,1,5.669,5.669V249.392Z" fill="#009fe3"/>
          </g>
          <g id="Group_61" data-name="Group 61">
            <path id="Path_77" data-name="Path 77" d="M392.063,249.392a5.686,5.686,0,0,1-5.669,5.669h-14.23a5.686,5.686,0,0,1-5.669-5.669V147.7a5.686,5.686,0,0,1,5.669-5.669h14.23a5.686,5.686,0,0,1,5.669,5.669Z" fill="#009640"/>
          </g>
          <g id="Group_62" data-name="Group 62">
            <path id="Path_78" data-name="Path 78" d="M477.653,249.392a5.686,5.686,0,0,1-5.669,5.669h-14.23a5.686,5.686,0,0,1-5.669-5.669V147.7a5.686,5.686,0,0,1,5.669-5.669h14.23a5.686,5.686,0,0,1,5.669,5.669Z" fill="#e30613"/>
          </g>
          <g id="Group_63" data-name="Group 63" opacity="0.5">
            <path id="Path_79" data-name="Path 79" d="M356.293,249.392a5.686,5.686,0,0,1-5.669,5.669h-14.23a5.686,5.686,0,0,1-5.669-5.669V147.7a5.686,5.686,0,0,1,5.669-5.669h14.23a5.686,5.686,0,0,1,5.669,5.669Z" fill="#009fe3"/>
          </g>
          <g id="Group_64" data-name="Group 64" opacity="0.5">
            <path id="Path_80" data-name="Path 80" d="M443.034,249.392a5.686,5.686,0,0,1-5.669,5.669h-14.23a5.686,5.686,0,0,1-5.669-5.669V147.7a5.686,5.686,0,0,1,5.669-5.669h14.23a5.686,5.686,0,0,1,5.669,5.669Z" fill="#009640"/>
          </g>
          <g id="Group_65" data-name="Group 65" opacity="0.5">
            <path id="Path_81" data-name="Path 81" d="M528.765,249.392a5.686,5.686,0,0,1-5.669,5.669H508.867a5.686,5.686,0,0,1-5.669-5.669V147.7a5.686,5.686,0,0,1,5.669-5.669H523.1a5.686,5.686,0,0,1,5.669,5.669Z" fill="#e30613"/>
          </g>
          <g id="Group_66" data-name="Group 66">
            <path id="Path_82" data-name="Path 82" d="M222.826,141.922a9.373,9.373,0,0,0-7.943,5.164l-33.438,76.357a14.788,14.788,0,0,0,.012,10.381l9.166,20.8c1.258,2.854,3.309,2.851,4.559-.006l47-107.392c1.25-2.856-.278-5.207-3.4-5.224Z" fill="#ffed00"/>
          </g>
          <g id="Group_67" data-name="Group 67" opacity="0.5">
            <path id="Path_83" data-name="Path 83" d="M268.183,141.922a9.373,9.373,0,0,0-7.943,5.164L226.8,223.443a14.788,14.788,0,0,0,.012,10.381l9.166,20.8c1.258,2.854,3.309,2.851,4.559-.006l47-107.392c1.25-2.856-.278-5.207-3.4-5.224Z" fill="#ffed00"/>
          </g>
        </g>
      </g>
    </g>
    <g id="Group_106" data-name="Group 106">
      <g id="Group_101" data-name="Group 101">
        <path id="Path_121" data-name="Path 121" d="M144.688,315.872a9.266,9.266,0,0,0,.4,2.7,6.658,6.658,0,0,0,1.189,2.285,5.722,5.722,0,0,0,2.005,1.562,6.628,6.628,0,0,0,2.892.583,6.382,6.382,0,0,0,3.754-1A5.93,5.93,0,0,0,157.046,319h5.037a10,10,0,0,1-3.918,6.086,10.656,10.656,0,0,1-3.241,1.585,13.069,13.069,0,0,1-3.754.537,12.766,12.766,0,0,1-5.037-.934,10.4,10.4,0,0,1-3.708-2.611,11.061,11.061,0,0,1-2.285-4.011,16.292,16.292,0,0,1-.77-5.13,14.516,14.516,0,0,1,.816-4.873,12.469,12.469,0,0,1,2.332-4.058,10.934,10.934,0,0,1,8.512-3.8,10.8,10.8,0,0,1,5.106,1.189,11.2,11.2,0,0,1,3.754,3.147,12.758,12.758,0,0,1,2.168,4.5,13.828,13.828,0,0,1,.35,5.247h-17.72Zm12.406-3.5a8.587,8.587,0,0,0-.536-2.425,6.484,6.484,0,0,0-1.213-2.028,6,6,0,0,0-1.865-1.4,5.5,5.5,0,0,0-2.448-.536,6.4,6.4,0,0,0-2.542.489,5.794,5.794,0,0,0-1.958,1.353,6.716,6.716,0,0,0-1.306,2.029,7.059,7.059,0,0,0-.537,2.518h12.4Z" fill="#3c3c3b"/>
        <path id="Path_122" data-name="Path 122" d="M167.135,302.44h4.99V307.1h.093a5.355,5.355,0,0,1,.91-1.912,8.845,8.845,0,0,1,1.632-1.7,8.233,8.233,0,0,1,2.122-1.236,6.369,6.369,0,0,1,2.379-.466,11.514,11.514,0,0,1,1.282.047q.35.047.723.093v5.13c-.374-.062-.754-.116-1.143-.163a9.512,9.512,0,0,0-1.143-.07,6.121,6.121,0,0,0-2.542.537,5.826,5.826,0,0,0-2.075,1.585,7.746,7.746,0,0,0-1.4,2.589,11.17,11.17,0,0,0-.513,3.544v11.473h-5.316Z" fill="#3c3c3b"/>
        <path id="Path_123" data-name="Path 123" d="M183.429,302.44h3.964v-2.005a10.292,10.292,0,0,1,.56-3.708,5.255,5.255,0,0,1,1.493-2.191,4.926,4.926,0,0,1,2.122-1.026,11.877,11.877,0,0,1,2.495-.256,15.215,15.215,0,0,1,3.731.326v4.15a7.717,7.717,0,0,0-1.1-.21,11.654,11.654,0,0,0-1.375-.069,3.241,3.241,0,0,0-1.842.513,2.251,2.251,0,0,0-.77,2.005v2.472h4.524v3.965h-4.524v20.146H187.4V306.406h-3.964V302.44Z" fill="#3c3c3b"/>
        <path id="Path_124" data-name="Path 124" d="M222.953,325.293q0,5.457-3.055,8.138t-8.791,2.682a18.463,18.463,0,0,1-3.661-.373,10.868,10.868,0,0,1-3.358-1.26,8.1,8.1,0,0,1-2.542-2.331,7.092,7.092,0,0,1-1.212-3.545h5.316a4.252,4.252,0,0,0,.793,1.819,4.1,4.1,0,0,0,1.329,1.1,5.064,5.064,0,0,0,1.7.513,15.932,15.932,0,0,0,1.959.117,6.2,6.2,0,0,0,4.71-1.586,6.424,6.424,0,0,0,1.493-4.57v-3.685h-.093a8.093,8.093,0,0,1-3.055,3.125,8.2,8.2,0,0,1-4.174,1.119,11.01,11.01,0,0,1-4.92-1,9.348,9.348,0,0,1-3.358-2.751,11.418,11.418,0,0,1-1.935-4.034,18.994,18.994,0,0,1-.606-4.9,14.24,14.24,0,0,1,.746-4.616,11.749,11.749,0,0,1,2.146-3.848,10.271,10.271,0,0,1,3.428-2.635,10.428,10.428,0,0,1,4.593-.979,9.258,9.258,0,0,1,4.2.956,6.49,6.49,0,0,1,2.938,3.008h.093v-3.312h5.316v22.852Zm-11.8-2.939a5.642,5.642,0,0,0,5.013-2.635,8.41,8.41,0,0,0,1.119-2.7,13.547,13.547,0,0,0,.35-3.055,11.914,11.914,0,0,0-.373-2.984,8.048,8.048,0,0,0-1.143-2.565,5.536,5.536,0,0,0-2.005-1.772,6.268,6.268,0,0,0-2.961-.652,5.6,5.6,0,0,0-2.985.746,5.972,5.972,0,0,0-1.959,1.936,8.322,8.322,0,0,0-1.072,2.7,14.233,14.233,0,0,0-.327,3.008,11.428,11.428,0,0,0,.373,2.915,8.053,8.053,0,0,0,1.143,2.541,6.094,6.094,0,0,0,1.959,1.819A5.57,5.57,0,0,0,211.154,322.354Z" fill="#3c3c3b"/>
        <path id="Path_125" data-name="Path 125" d="M240,327.2a13.131,13.131,0,0,1-5.153-.956,10.984,10.984,0,0,1-3.824-2.636,11.232,11.232,0,0,1-2.378-4.011,16.386,16.386,0,0,1,0-10.213,11.241,11.241,0,0,1,2.378-4.011,11,11,0,0,1,3.824-2.635,14.366,14.366,0,0,1,10.306,0,11.014,11.014,0,0,1,3.824,2.635,11.27,11.27,0,0,1,2.378,4.011,16.386,16.386,0,0,1,0,10.213,11.262,11.262,0,0,1-2.378,4.011,11,11,0,0,1-3.824,2.636A13.138,13.138,0,0,1,240,327.2Zm0-4.2a6.1,6.1,0,0,0,3.078-.747,6.47,6.47,0,0,0,2.145-1.958,8.562,8.562,0,0,0,1.236-2.729,12.215,12.215,0,0,0,.4-3.1,12.361,12.361,0,0,0-.4-3.078,8.268,8.268,0,0,0-1.236-2.728,6.6,6.6,0,0,0-2.145-1.936,6.723,6.723,0,0,0-6.156,0,6.592,6.592,0,0,0-2.145,1.936,8.238,8.238,0,0,0-1.236,2.728,12.254,12.254,0,0,0,0,6.18,8.54,8.54,0,0,0,1.236,2.729,6.46,6.46,0,0,0,2.145,1.958A6.088,6.088,0,0,0,240,323.008Z" fill="#3c3c3b"/>
        <path id="Path_126" data-name="Path 126" d="M261.235,315.872a9.265,9.265,0,0,0,.4,2.7,6.658,6.658,0,0,0,1.189,2.285,5.722,5.722,0,0,0,2.005,1.562,6.628,6.628,0,0,0,2.892.583,6.382,6.382,0,0,0,3.754-1A5.93,5.93,0,0,0,273.593,319h5.037a10,10,0,0,1-3.918,6.086,10.656,10.656,0,0,1-3.241,1.585,13.069,13.069,0,0,1-3.754.537,12.766,12.766,0,0,1-5.037-.934,10.4,10.4,0,0,1-3.708-2.611,11.061,11.061,0,0,1-2.285-4.011,16.292,16.292,0,0,1-.77-5.13,14.516,14.516,0,0,1,.816-4.873,12.469,12.469,0,0,1,2.332-4.058,10.934,10.934,0,0,1,8.512-3.8,10.8,10.8,0,0,1,5.106,1.189,11.2,11.2,0,0,1,3.754,3.147,12.758,12.758,0,0,1,2.168,4.5,13.828,13.828,0,0,1,.35,5.247h-17.72Zm12.406-3.5a8.587,8.587,0,0,0-.536-2.425,6.484,6.484,0,0,0-1.213-2.028,6,6,0,0,0-1.865-1.4,5.5,5.5,0,0,0-2.448-.536,6.4,6.4,0,0,0-2.542.489,5.794,5.794,0,0,0-1.958,1.353,6.716,6.716,0,0,0-1.306,2.029,7.059,7.059,0,0,0-.537,2.518h12.4Z" fill="#3c3c3b"/>
        <path id="Path_127" data-name="Path 127" d="M306.477,326.552H301.44v-3.265h-.093a6.314,6.314,0,0,1-3.125,3.008,10.6,10.6,0,0,1-4.337.91,11.519,11.519,0,0,1-4.967-1,9.887,9.887,0,0,1-3.521-2.729,11.667,11.667,0,0,1-2.1-4.08,17.672,17.672,0,0,1-.7-5.061,16.162,16.162,0,0,1,.886-5.643,11.279,11.279,0,0,1,2.355-3.918,9.13,9.13,0,0,1,3.358-2.262,10.7,10.7,0,0,1,3.847-.723,12.773,12.773,0,0,1,2.285.21,10.09,10.09,0,0,1,2.239.676,8.9,8.9,0,0,1,1.982,1.189,6.613,6.613,0,0,1,1.516,1.7h.093V293.251h5.317v33.3Zm-18.561-11.8a11.773,11.773,0,0,0,.4,3.031,8.292,8.292,0,0,0,1.212,2.658,6.129,6.129,0,0,0,2.076,1.865,6.042,6.042,0,0,0,2.984.7,5.97,5.97,0,0,0,3.055-.747,6.32,6.32,0,0,0,2.1-1.958,8.88,8.88,0,0,0,1.212-2.729,12.215,12.215,0,0,0,.4-3.1,9.748,9.748,0,0,0-1.8-6.249,5.916,5.916,0,0,0-4.874-2.238,6.008,6.008,0,0,0-3.148.77,6.48,6.48,0,0,0-2.1,2.005,8.328,8.328,0,0,0-1.166,2.8A14.666,14.666,0,0,0,287.916,314.753Z" fill="#3c3c3b"/>
        <path id="Path_128" data-name="Path 128" d="M355.025,293.254h5.316v18.934l9.607-9.747h6.529l-9.234,8.861,10.12,15.25h-6.482l-7.369-11.706-3.171,3.078v8.628h-5.316Z" fill="#3c3c3b"/>
        <path id="Path_129" data-name="Path 129" d="M401.483,326.552h-5.224V323.2h-.093a7.3,7.3,0,0,1-2.915,2.914,7.923,7.923,0,0,1-3.941,1.1q-4.756,0-6.879-2.355t-2.122-7.112v-15.3h5.316v14.784q0,3.171,1.212,4.477a4.415,4.415,0,0,0,3.4,1.307,6.7,6.7,0,0,0,2.8-.514,4.94,4.94,0,0,0,1.819-1.376,5.28,5.28,0,0,0,1-2.075,10.746,10.746,0,0,0,.3-2.611V302.44h5.317v24.112Z" fill="#3c3c3b"/>
        <path id="Path_130" data-name="Path 130" d="M407.522,302.44h5.037v3.545l.093.093a8.908,8.908,0,0,1,3.171-3.147,8.447,8.447,0,0,1,4.337-1.143,9.016,9.016,0,0,1,6.25,2.052q2.285,2.052,2.285,6.156v16.556h-5.317V311.395a6.553,6.553,0,0,0-1.212-4.127,4.407,4.407,0,0,0-3.5-1.282,5.781,5.781,0,0,0-2.425.489,5.255,5.255,0,0,0-1.819,1.353,6.365,6.365,0,0,0-1.166,2.029,7.24,7.24,0,0,0-.42,2.472v14.224h-5.316Z" fill="#3c3c3b"/>
        <path id="Path_131" data-name="Path 131" d="M438.721,318.811a4,4,0,0,0,1.772,3.264,6.964,6.964,0,0,0,3.684.934,14.206,14.206,0,0,0,1.7-.117,7.4,7.4,0,0,0,1.8-.442,3.376,3.376,0,0,0,1.375-.956,2.3,2.3,0,0,0,.49-1.656,2.351,2.351,0,0,0-.746-1.679,5.17,5.17,0,0,0-1.8-1.049,17.36,17.36,0,0,0-2.495-.677q-1.4-.281-2.845-.606a26.163,26.163,0,0,1-2.868-.793,9.182,9.182,0,0,1-2.472-1.259,5.8,5.8,0,0,1-1.749-2.028,6.476,6.476,0,0,1-.653-3.055,5.477,5.477,0,0,1,.956-3.288,7.342,7.342,0,0,1,2.425-2.146,10.566,10.566,0,0,1,3.264-1.143,19.228,19.228,0,0,1,3.428-.326,15.765,15.765,0,0,1,3.568.4,9.724,9.724,0,0,1,3.078,1.282,7.527,7.527,0,0,1,2.285,2.309,8.014,8.014,0,0,1,1.143,3.428h-5.55a3.313,3.313,0,0,0-1.749-2.565,7.263,7.263,0,0,0-3.148-.652,11.3,11.3,0,0,0-1.329.093,6.192,6.192,0,0,0-1.446.35,3.05,3.05,0,0,0-1.143.747,1.781,1.781,0,0,0-.466,1.282,2.03,2.03,0,0,0,.676,1.586,5.347,5.347,0,0,0,1.772,1,17.325,17.325,0,0,0,2.495.677q1.4.281,2.892.606,1.445.327,2.845.792a9.194,9.194,0,0,1,2.495,1.26,6.133,6.133,0,0,1,1.772,2.005,6.069,6.069,0,0,1,.676,2.985,6.487,6.487,0,0,1-.979,3.638,7.742,7.742,0,0,1-2.542,2.425,11.6,11.6,0,0,1-3.474,1.353,17.644,17.644,0,0,1-3.778.42,16.43,16.43,0,0,1-4.22-.514,9.821,9.821,0,0,1-3.358-1.562,7.53,7.53,0,0,1-2.239-2.611,8.3,8.3,0,0,1-.863-3.707h5.318Z" fill="#3c3c3b"/>
        <path id="Path_132" data-name="Path 132" d="M457.147,302.44h4.011v-7.229h5.316v7.229h4.8V306.4h-4.8v12.871a12.752,12.752,0,0,0,.07,1.446,2.478,2.478,0,0,0,.326,1.025,1.553,1.553,0,0,0,.77.63,3.782,3.782,0,0,0,1.4.21c.373,0,.747-.008,1.12-.023a5.538,5.538,0,0,0,1.119-.163v4.1q-.887.093-1.726.187a15.425,15.425,0,0,1-1.726.094,11.816,11.816,0,0,1-3.381-.4,4.505,4.505,0,0,1-2.005-1.166,4.012,4.012,0,0,1-.979-1.936,14.541,14.541,0,0,1-.3-2.658V306.406h-4.011V302.44Z" fill="#3c3c3b"/>
        <path id="Path_133" data-name="Path 133" d="M516.722,307.48a9.124,9.124,0,0,1,1.687-3.163,7.646,7.646,0,0,1,2.83-2.109,9.584,9.584,0,0,1,3.919-.756,9.815,9.815,0,0,1,3.217.527,8.252,8.252,0,0,1,2.689,1.512,7.18,7.18,0,0,1,1.845,2.426,7.433,7.433,0,0,1,.686,3.233,7.779,7.779,0,0,1-.6,3.2,8.424,8.424,0,0,1-1.582,2.373,13.56,13.56,0,0,1-2.232,1.881q-1.248.843-2.514,1.67t-2.46,1.774a11.123,11.123,0,0,0-2.109,2.215h11.636v4.289H515.667a10.267,10.267,0,0,1,.615-3.727,9.923,9.923,0,0,1,1.67-2.83,14.641,14.641,0,0,1,2.478-2.3q1.424-1.055,3.006-2.145.809-.562,1.722-1.143a11.48,11.48,0,0,0,1.67-1.283,6.841,6.841,0,0,0,1.266-1.582,3.924,3.924,0,0,0,.51-2,3.707,3.707,0,0,0-1.037-2.8,3.665,3.665,0,0,0-2.654-1,3.224,3.224,0,0,0-1.846.51,3.8,3.8,0,0,0-1.213,1.335,6.14,6.14,0,0,0-.65,1.828,10.459,10.459,0,0,0-.193,1.986H516.23A11.755,11.755,0,0,1,516.722,307.48Z" fill="#3c3c3b"/>
        <path id="Path_134" data-name="Path 134" d="M537.452,308.113a10.841,10.841,0,0,1,1.951-3.919,7,7,0,0,1,2.865-2.109,9.885,9.885,0,0,1,6.961,0,7.135,7.135,0,0,1,2.883,2.109,10.682,10.682,0,0,1,1.968,3.919,21.628,21.628,0,0,1,.721,6.029,22.454,22.454,0,0,1-.721,6.169,10.688,10.688,0,0,1-1.968,3.955,7.126,7.126,0,0,1-2.883,2.109,9.624,9.624,0,0,1-3.5.633,9.506,9.506,0,0,1-3.463-.633,7,7,0,0,1-2.865-2.109,10.848,10.848,0,0,1-1.951-3.955,22.414,22.414,0,0,1-.721-6.169A21.589,21.589,0,0,1,537.452,308.113Zm4.341,8.578a13.712,13.712,0,0,0,.439,2.883,6.158,6.158,0,0,0,1.178,2.372,2.831,2.831,0,0,0,2.32.984,2.925,2.925,0,0,0,2.373-.984,6.046,6.046,0,0,0,1.2-2.372,13.712,13.712,0,0,0,.439-2.883q.07-1.494.07-2.549,0-.633-.018-1.529a17.317,17.317,0,0,0-.493-3.727,5.774,5.774,0,0,0-.686-1.67,3.761,3.761,0,0,0-1.16-1.194,3.1,3.1,0,0,0-1.722-.457,3,3,0,0,0-1.705.457,3.669,3.669,0,0,0-1.125,1.194,6.494,6.494,0,0,0-.686,1.67,13.053,13.053,0,0,0-.352,1.881q-.106.95-.123,1.846t-.018,1.529C541.723,314.846,541.746,315.7,541.793,316.691Z" fill="#3c3c3b"/>
        <path id="Path_135" data-name="Path 135" d="M558.558,307.48a9.124,9.124,0,0,1,1.687-3.163,7.646,7.646,0,0,1,2.83-2.109,9.584,9.584,0,0,1,3.919-.756,9.815,9.815,0,0,1,3.217.527,8.252,8.252,0,0,1,2.689,1.512,7.18,7.18,0,0,1,1.845,2.426,7.433,7.433,0,0,1,.686,3.233,7.779,7.779,0,0,1-.6,3.2,8.424,8.424,0,0,1-1.582,2.373,13.56,13.56,0,0,1-2.232,1.881q-1.248.843-2.514,1.67t-2.46,1.774a11.123,11.123,0,0,0-2.109,2.215h11.636v4.289H557.5a10.267,10.267,0,0,1,.615-3.727,9.923,9.923,0,0,1,1.67-2.83,14.641,14.641,0,0,1,2.478-2.3q1.424-1.055,3.006-2.145.809-.562,1.722-1.143a11.48,11.48,0,0,0,1.67-1.283,6.841,6.841,0,0,0,1.266-1.582,3.924,3.924,0,0,0,.51-2,3.707,3.707,0,0,0-1.037-2.8,3.665,3.665,0,0,0-2.654-1,3.224,3.224,0,0,0-1.846.51,3.8,3.8,0,0,0-1.213,1.335,6.14,6.14,0,0,0-.65,1.828,10.459,10.459,0,0,0-.193,1.986h-4.781A11.807,11.807,0,0,1,558.558,307.48Z" fill="#3c3c3b"/>
        <path id="Path_136" data-name="Path 136" d="M579.288,308.113a10.841,10.841,0,0,1,1.951-3.919,7,7,0,0,1,2.865-2.109,9.885,9.885,0,0,1,6.961,0,7.135,7.135,0,0,1,2.883,2.109,10.682,10.682,0,0,1,1.968,3.919,21.628,21.628,0,0,1,.721,6.029,22.454,22.454,0,0,1-.721,6.169,10.688,10.688,0,0,1-1.968,3.955,7.126,7.126,0,0,1-2.883,2.109,9.624,9.624,0,0,1-3.5.633,9.506,9.506,0,0,1-3.463-.633,7,7,0,0,1-2.865-2.109,10.848,10.848,0,0,1-1.951-3.955,22.414,22.414,0,0,1-.721-6.169A21.589,21.589,0,0,1,579.288,308.113Zm4.341,8.578a13.712,13.712,0,0,0,.439,2.883,6.158,6.158,0,0,0,1.178,2.372,2.831,2.831,0,0,0,2.32.984,2.925,2.925,0,0,0,2.373-.984,6.046,6.046,0,0,0,1.2-2.372,13.712,13.712,0,0,0,.439-2.883q.07-1.494.07-2.549,0-.633-.018-1.529a17.317,17.317,0,0,0-.493-3.727,5.774,5.774,0,0,0-.686-1.67,3.761,3.761,0,0,0-1.16-1.194,3.1,3.1,0,0,0-1.722-.457,3,3,0,0,0-1.705.457,3.669,3.669,0,0,0-1.125,1.194,6.494,6.494,0,0,0-.686,1.67,13.053,13.053,0,0,0-.352,1.881q-.106.95-.123,1.846t-.018,1.529C583.559,314.846,583.582,315.7,583.629,316.691Z" fill="#3c3c3b"/>
      </g>
      <g id="Group_103" data-name="Group 103">
        <g id="Group_102" data-name="Group 102">
          <path id="Path_137" data-name="Path 137" d="M320.667,307.5l.59.59-.751.671a.378.378,0,0,1-.577-.12.4.4,0,0,1,.121-.6Zm0,17.71.59.591-.751.671a.379.379,0,0,1-.577-.121.4.4,0,0,1,.121-.6Zm1.878-17.308q.322.348.094.617a.4.4,0,0,1-.577.054L320.21,306.8q-.348-.483.067-.685c.277-.135.523-.049.738.255Zm0,17.71c.215.233.246.438.094.617a.4.4,0,0,1-.577.054l-1.852-1.771q-.348-.483.067-.685a.547.547,0,0,1,.738.255Zm-.992-18.944.59-.482a.538.538,0,0,1,.671.04c.214.17.206.362-.027.577l-.59.51Zm0,17.71.59-.482a.538.538,0,0,1,.671.04c.214.17.206.362-.027.577l-.59.51Zm2.334-13.927.59.591-.751.671a.378.378,0,0,1-.577-.121.4.4,0,0,1,.121-.6Zm0,11.808.59.59-.751.671a.378.378,0,0,1-.577-.121.4.4,0,0,1,.121-.6Zm1.879-11.4c.214.232.246.438.094.617a.4.4,0,0,1-.577.054l-1.852-1.771q-.35-.483.067-.685a.547.547,0,0,1,.738.255Zm0,11.807c.214.232.246.438.094.617a.4.4,0,0,1-.577.054l-1.852-1.771q-.35-.483.067-.685a.547.547,0,0,1,.738.256Zm-.993-13.041.59-.483a.538.538,0,0,1,.67.04c.215.171.206.362-.027.577l-.59.51Zm0,11.807.59-.483a.539.539,0,0,1,.67.04c.215.171.206.362-.027.577l-.59.51Zm2.334-13.927.59.59-.751.671a.378.378,0,0,1-.577-.12.4.4,0,0,1,.121-.6Zm0,5.9.59.59-.751.671a.378.378,0,0,1-.577-.12.4.4,0,0,1,.121-.6Zm0,5.9.59.591-.751.671a.379.379,0,0,1-.577-.121.4.4,0,0,1,.121-.6Zm0,5.9.59.591-.751.671a.379.379,0,0,1-.577-.121.4.4,0,0,1,.121-.6Zm1.878-17.308q.322.348.094.617a.4.4,0,0,1-.577.054L326.65,306.8q-.348-.483.067-.685c.277-.135.523-.049.738.255Zm0,5.9q.322.348.094.617a.4.4,0,0,1-.577.054l-1.852-1.771q-.348-.483.067-.685a.547.547,0,0,1,.738.255Zm0,5.9c.215.233.246.438.094.617a.4.4,0,0,1-.577.054l-1.852-1.771q-.348-.483.067-.685a.547.547,0,0,1,.738.255Zm0,5.9c.215.233.246.438.094.617a.4.4,0,0,1-.577.054l-1.852-1.771q-.348-.483.067-.685a.547.547,0,0,1,.738.255Zm-.992-18.944.59-.482a.538.538,0,0,1,.671.04q.322.255-.027.577l-.59.51Zm0,5.9.59-.482a.538.538,0,0,1,.671.04q.322.255-.027.577l-.59.51Zm0,5.9.59-.482a.538.538,0,0,1,.671.04q.322.255-.027.577l-.59.51Zm0,5.9.59-.482a.538.538,0,0,1,.671.04q.322.255-.027.577l-.59.51Zm2.334-8.023.59.59-.751.671a.378.378,0,0,1-.577-.121.4.4,0,0,1,.121-.6Zm1.879.4q.322.348.094.617a.4.4,0,0,1-.577.054l-1.852-1.771q-.35-.483.067-.685a.547.547,0,0,1,.738.255Zm-.993-1.235.59-.483a.539.539,0,0,1,.671.04c.214.171.2.362-.027.577l-.59.51Zm2.334-8.023.59.59-.751.671a.378.378,0,0,1-.577-.12.4.4,0,0,1,.121-.6Zm0,5.9.59.59-.751.671a.378.378,0,0,1-.577-.12.4.4,0,0,1,.121-.6Zm0,5.9.59.591-.751.671a.379.379,0,0,1-.577-.121.4.4,0,0,1,.121-.6Zm0,5.9.59.591-.751.671a.379.379,0,0,1-.577-.121.4.4,0,0,1,.121-.6Zm1.879-17.308c.214.232.246.438.094.617a.4.4,0,0,1-.577.054l-1.851-1.771q-.35-.483.067-.685c.277-.135.523-.049.738.255Zm0,5.9c.214.232.246.438.094.617a.4.4,0,0,1-.577.054l-1.851-1.771q-.35-.483.067-.685a.547.547,0,0,1,.738.255Zm0,5.9c.214.233.246.438.094.617a.4.4,0,0,1-.577.054l-1.851-1.771q-.35-.483.067-.685a.547.547,0,0,1,.738.255Zm0,5.9c.214.233.246.438.094.617a.4.4,0,0,1-.577.054l-1.851-1.771q-.35-.483.067-.685a.547.547,0,0,1,.738.255Zm-.993-18.944.59-.482a.538.538,0,0,1,.671.04q.322.255-.027.577l-.59.51Zm0,5.9.59-.482a.538.538,0,0,1,.671.04q.322.255-.027.577l-.59.51Zm0,5.9.59-.482a.538.538,0,0,1,.671.04q.322.255-.027.577l-.59.51Zm0,5.9.59-.482a.538.538,0,0,1,.671.04q.322.255-.027.577l-.59.51Zm2.334-13.927.59.591-.751.671a.378.378,0,0,1-.577-.121.4.4,0,0,1,.121-.6Zm0,11.808.59.59-.751.671a.378.378,0,0,1-.577-.121.4.4,0,0,1,.121-.6Zm1.879-11.4q.322.348.094.617a.4.4,0,0,1-.577.054l-1.852-1.771q-.348-.483.067-.685a.547.547,0,0,1,.738.255Zm0,11.807q.322.348.094.617a.4.4,0,0,1-.577.054l-1.852-1.771q-.348-.483.067-.685a.547.547,0,0,1,.738.256Zm-.993-13.041.59-.483a.539.539,0,0,1,.671.04c.214.171.206.362-.027.577l-.59.51Zm0,11.807.59-.483a.541.541,0,0,1,.671.04c.214.171.206.362-.027.577l-.59.51Zm2.334-13.927.59.59-.751.671a.378.378,0,0,1-.577-.12.4.4,0,0,1,.121-.6Zm0,17.71.59.591-.751.671a.379.379,0,0,1-.577-.121.4.4,0,0,1,.121-.6Zm1.879-17.308q.322.348.094.617a.4.4,0,0,1-.577.054l-1.852-1.771q-.35-.483.067-.685c.277-.135.523-.049.738.255Zm0,17.71c.215.233.246.438.094.617a.4.4,0,0,1-.577.054l-1.852-1.771q-.35-.483.067-.685a.547.547,0,0,1,.738.255Zm-.993-18.944.59-.482a.536.536,0,0,1,.67.04q.322.255-.026.577l-.59.51Zm0,17.71.59-.482a.536.536,0,0,1,.67.04q.322.255-.026.577l-.59.51Z" fill="#e30613"/>
        </g>
      </g>
      <g id="Group_105" data-name="Group 105">
        <g id="Group_104" data-name="Group 104">
          <path id="Path_138" data-name="Path 138" d="M485.167,307.5l.59.59-.751.671a.378.378,0,0,1-.577-.12.4.4,0,0,1,.121-.6Zm0,17.71.59.591-.751.671a.379.379,0,0,1-.577-.121.4.4,0,0,1,.121-.6Zm1.878-17.308q.322.348.094.617a.4.4,0,0,1-.577.054L484.71,306.8q-.348-.483.067-.685c.277-.135.523-.049.738.255Zm0,17.71c.215.233.246.438.094.617a.4.4,0,0,1-.577.054l-1.852-1.771q-.348-.483.067-.685a.547.547,0,0,1,.738.255Zm-.993-18.944.59-.482a.538.538,0,0,1,.671.04c.214.17.206.362-.027.577l-.59.51Zm0,17.71.59-.482a.538.538,0,0,1,.671.04c.214.17.206.362-.027.577l-.59.51Zm2.335-13.927.59.591-.751.671a.378.378,0,0,1-.577-.121.4.4,0,0,1,.121-.6Zm0,11.808.59.59-.751.671a.378.378,0,0,1-.577-.121.4.4,0,0,1,.121-.6Zm1.878-11.4c.214.232.246.438.094.617a.4.4,0,0,1-.577.054l-1.852-1.771q-.35-.483.067-.685a.547.547,0,0,1,.738.255Zm0,11.807c.214.232.246.438.094.617a.4.4,0,0,1-.577.054l-1.852-1.771q-.35-.483.067-.685a.547.547,0,0,1,.738.256Zm-.993-13.041.59-.483a.538.538,0,0,1,.67.04c.215.171.206.362-.027.577l-.59.51Zm0,11.807.59-.483a.539.539,0,0,1,.67.04c.215.171.206.362-.027.577l-.59.51Zm2.335-13.927.59.59-.751.671a.378.378,0,0,1-.577-.12.4.4,0,0,1,.121-.6Zm0,5.9.59.59-.751.671a.378.378,0,0,1-.577-.12.4.4,0,0,1,.121-.6Zm0,5.9.59.591-.751.671a.379.379,0,0,1-.577-.121.4.4,0,0,1,.121-.6Zm0,5.9.59.591-.751.671a.379.379,0,0,1-.577-.121.4.4,0,0,1,.121-.6Zm1.878-17.308q.322.348.094.617a.4.4,0,0,1-.577.054L491.15,306.8q-.348-.483.067-.685c.277-.135.523-.049.738.255Zm0,5.9q.322.348.094.617a.4.4,0,0,1-.577.054l-1.852-1.771q-.348-.483.067-.685a.547.547,0,0,1,.738.255Zm0,5.9c.215.233.246.438.094.617a.4.4,0,0,1-.577.054l-1.852-1.771q-.348-.483.067-.685a.547.547,0,0,1,.738.255Zm0,5.9c.215.233.246.438.094.617a.4.4,0,0,1-.577.054l-1.852-1.771q-.348-.483.067-.685a.547.547,0,0,1,.738.255Zm-.993-18.944.59-.482a.538.538,0,0,1,.671.04q.322.255-.027.577l-.59.51Zm0,5.9.59-.482a.538.538,0,0,1,.671.04q.322.255-.027.577l-.59.51Zm0,5.9.59-.482a.538.538,0,0,1,.671.04q.322.255-.027.577l-.59.51Zm0,5.9.59-.482a.538.538,0,0,1,.671.04q.322.255-.027.577l-.59.51Zm2.335-8.023.59.59-.751.671a.378.378,0,0,1-.577-.121.4.4,0,0,1,.121-.6Zm1.878.4q.322.348.094.617a.4.4,0,0,1-.577.054l-1.852-1.771q-.35-.483.067-.685a.547.547,0,0,1,.738.255Zm-.993-1.235.59-.483a.539.539,0,0,1,.671.04c.214.171.2.362-.027.577l-.59.51Zm2.335-8.023.59.59-.751.671a.378.378,0,0,1-.577-.12.4.4,0,0,1,.121-.6Zm0,5.9.59.59-.751.671a.378.378,0,0,1-.577-.12.4.4,0,0,1,.121-.6Zm0,5.9.59.591-.751.671a.379.379,0,0,1-.577-.121.4.4,0,0,1,.121-.6Zm0,5.9.59.591-.751.671a.379.379,0,0,1-.577-.121.4.4,0,0,1,.121-.6Zm1.878-17.308c.214.232.246.438.094.617a.4.4,0,0,1-.577.054l-1.851-1.771q-.35-.483.067-.685c.277-.135.523-.049.738.255Zm0,5.9c.214.232.246.438.094.617a.4.4,0,0,1-.577.054l-1.851-1.771q-.35-.483.067-.685a.547.547,0,0,1,.738.255Zm0,5.9c.214.233.246.438.094.617a.4.4,0,0,1-.577.054l-1.851-1.771q-.35-.483.067-.685a.547.547,0,0,1,.738.255Zm0,5.9c.214.233.246.438.094.617a.4.4,0,0,1-.577.054l-1.851-1.771q-.35-.483.067-.685a.547.547,0,0,1,.738.255Zm-.993-18.944.59-.482a.538.538,0,0,1,.671.04q.322.255-.027.577l-.59.51Zm0,5.9.59-.482a.538.538,0,0,1,.671.04q.322.255-.027.577l-.59.51Zm0,5.9.59-.482a.538.538,0,0,1,.671.04q.322.255-.027.577l-.59.51Zm0,5.9.59-.482a.538.538,0,0,1,.671.04q.322.255-.027.577l-.59.51Zm2.335-13.927.59.591-.751.671a.378.378,0,0,1-.577-.121.4.4,0,0,1,.121-.6Zm0,11.808.59.59-.751.671a.378.378,0,0,1-.577-.121.4.4,0,0,1,.121-.6Zm1.878-11.4q.322.348.094.617a.4.4,0,0,1-.577.054l-1.852-1.771q-.348-.483.067-.685a.547.547,0,0,1,.738.255Zm0,11.807q.322.348.094.617a.4.4,0,0,1-.577.054l-1.852-1.771q-.348-.483.067-.685a.547.547,0,0,1,.738.256Zm-.993-13.041.59-.483a.539.539,0,0,1,.671.04c.214.171.206.362-.027.577l-.59.51Zm0,11.807.59-.483a.541.541,0,0,1,.671.04c.214.171.206.362-.027.577l-.59.51Zm2.335-13.927.59.59-.751.671a.378.378,0,0,1-.577-.12.4.4,0,0,1,.121-.6Zm0,17.71.59.591-.751.671a.379.379,0,0,1-.577-.121.4.4,0,0,1,.121-.6Zm1.878-17.308q.322.348.094.617a.4.4,0,0,1-.577.054L504.03,306.8q-.35-.483.067-.685c.277-.135.523-.049.738.255Zm0,17.71c.215.233.246.438.094.617a.4.4,0,0,1-.577.054l-1.852-1.771q-.35-.483.067-.685a.547.547,0,0,1,.738.255Zm-.992-18.944.59-.482a.536.536,0,0,1,.67.04q.322.255-.026.577l-.59.51Zm0,17.71.59-.482a.536.536,0,0,1,.67.04q.322.255-.026.577l-.59.51Z" fill="#009fe3"/>
        </g>
      </g>
    </g>
  </g>
</svg>
