<svg xmlns="http://www.w3.org/2000/svg" width="22.449" height="20.501" viewBox="0 0 22.449 20.501">
  <g id="Group_72" data-name="Group 72" transform="translate(-319.839 -661.021)">
    <g id="Group_59" data-name="Group 59">
      <path id="Path_54" data-name="Path 54" d="M320.667,662.466l.59.59-.751.671a.378.378,0,0,1-.577-.12.4.4,0,0,1,.121-.6Zm0,17.71.59.591-.751.671a.379.379,0,0,1-.577-.121.4.4,0,0,1,.121-.6Zm1.878-17.308q.322.348.094.617a.4.4,0,0,1-.577.054l-1.852-1.771q-.348-.483.067-.685c.277-.135.523-.049.738.255Zm0,17.71c.215.233.246.438.094.617a.4.4,0,0,1-.577.054l-1.852-1.771q-.348-.483.067-.685a.547.547,0,0,1,.738.255Zm-.992-18.944.59-.482a.538.538,0,0,1,.671.04c.214.17.206.362-.027.577l-.59.51Zm0,17.71.59-.482a.538.538,0,0,1,.671.04c.214.17.206.362-.027.577l-.59.51Zm2.334-13.927.59.591-.751.671a.378.378,0,0,1-.577-.121.4.4,0,0,1,.121-.6Zm0,11.808.59.59-.751.671a.378.378,0,0,1-.577-.121.4.4,0,0,1,.121-.6Zm1.879-11.4c.214.232.246.438.094.617a.4.4,0,0,1-.577.054l-1.852-1.771q-.35-.483.067-.685a.547.547,0,0,1,.738.255Zm0,11.807c.214.232.246.438.094.617a.4.4,0,0,1-.577.054l-1.852-1.771q-.35-.483.067-.685a.547.547,0,0,1,.738.256Zm-.993-13.041.59-.483a.538.538,0,0,1,.67.04c.215.171.206.362-.027.577l-.59.51Zm0,11.807.59-.483a.539.539,0,0,1,.67.04c.215.171.206.362-.027.577l-.59.51Zm2.334-13.927.59.59-.751.671a.378.378,0,0,1-.577-.12.4.4,0,0,1,.121-.6Zm0,5.9.59.59-.751.671a.378.378,0,0,1-.577-.12.4.4,0,0,1,.121-.6Zm0,5.9.59.591-.751.671a.379.379,0,0,1-.577-.121.4.4,0,0,1,.121-.6Zm0,5.9.59.591-.751.671a.379.379,0,0,1-.577-.121.4.4,0,0,1,.121-.6Zm1.878-17.308q.322.348.094.617a.4.4,0,0,1-.577.054l-1.852-1.771q-.348-.483.067-.685c.277-.135.523-.049.738.255Zm0,5.9q.322.348.094.617a.4.4,0,0,1-.577.054l-1.852-1.771q-.348-.483.067-.685a.547.547,0,0,1,.738.255Zm0,5.9c.215.233.246.438.094.617a.4.4,0,0,1-.577.054l-1.852-1.771q-.348-.483.067-.685a.547.547,0,0,1,.738.255Zm0,5.9c.215.233.246.438.094.617a.4.4,0,0,1-.577.054l-1.852-1.771q-.348-.483.067-.685a.547.547,0,0,1,.738.255Zm-.992-18.944.59-.482a.538.538,0,0,1,.671.04q.322.255-.027.577l-.59.51Zm0,5.9.59-.482a.538.538,0,0,1,.671.04q.322.255-.027.577l-.59.51Zm0,5.9.59-.482a.538.538,0,0,1,.671.04q.322.255-.027.577l-.59.51Zm0,5.9.59-.482a.538.538,0,0,1,.671.04q.322.255-.027.577l-.59.51Zm2.334-8.023.59.59-.751.671a.378.378,0,0,1-.577-.121.4.4,0,0,1,.121-.6Zm1.879.4q.322.348.094.617a.4.4,0,0,1-.577.054l-1.852-1.771q-.35-.483.067-.685a.547.547,0,0,1,.738.255Zm-.993-1.235.59-.483a.539.539,0,0,1,.671.04c.214.171.2.362-.027.577l-.59.51Zm2.334-8.023.59.59-.751.671a.378.378,0,0,1-.577-.12.4.4,0,0,1,.121-.6Zm0,5.9.59.59-.751.671a.378.378,0,0,1-.577-.12.4.4,0,0,1,.121-.6Zm0,5.9.59.591-.751.671a.379.379,0,0,1-.577-.121.4.4,0,0,1,.121-.6Zm0,5.9.59.591-.751.671a.379.379,0,0,1-.577-.121.4.4,0,0,1,.121-.6Zm1.879-17.308c.214.232.246.438.094.617a.4.4,0,0,1-.577.054l-1.851-1.771q-.35-.483.067-.685c.277-.135.523-.049.738.255Zm0,5.9c.214.232.246.438.094.617a.4.4,0,0,1-.577.054l-1.851-1.771q-.35-.483.067-.685a.547.547,0,0,1,.738.255Zm0,5.9c.214.233.246.438.094.617a.4.4,0,0,1-.577.054l-1.851-1.771q-.35-.483.067-.685a.547.547,0,0,1,.738.255Zm0,5.9c.214.233.246.438.094.617a.4.4,0,0,1-.577.054l-1.851-1.771q-.35-.483.067-.685a.547.547,0,0,1,.738.255Zm-.993-18.944.59-.482a.538.538,0,0,1,.671.04q.322.255-.027.577l-.59.51Zm0,5.9.59-.482a.538.538,0,0,1,.671.04q.322.255-.027.577l-.59.51Zm0,5.9.59-.482a.538.538,0,0,1,.671.04q.322.255-.027.577l-.59.51Zm0,5.9.59-.482a.538.538,0,0,1,.671.04q.322.255-.027.577l-.59.51Zm2.334-13.927.59.591-.751.671a.378.378,0,0,1-.577-.121.4.4,0,0,1,.121-.6Zm0,11.808.59.59-.751.671a.378.378,0,0,1-.577-.121.4.4,0,0,1,.121-.6Zm1.879-11.4q.322.348.094.617a.4.4,0,0,1-.577.054l-1.852-1.771q-.348-.483.067-.685a.547.547,0,0,1,.738.255Zm0,11.807q.322.348.094.617a.4.4,0,0,1-.577.054l-1.852-1.771q-.348-.483.067-.685a.547.547,0,0,1,.738.256Zm-.993-13.041.59-.483a.539.539,0,0,1,.671.04c.214.171.206.362-.027.577l-.59.51Zm0,11.807.59-.483a.541.541,0,0,1,.671.04c.214.171.206.362-.027.577l-.59.51Zm2.334-13.927.59.59-.751.671a.378.378,0,0,1-.577-.12.4.4,0,0,1,.121-.6Zm0,17.71.59.591-.751.671a.379.379,0,0,1-.577-.121.4.4,0,0,1,.121-.6Zm1.879-17.308q.322.348.094.617a.4.4,0,0,1-.577.054l-1.852-1.771q-.35-.483.067-.685c.277-.135.523-.049.738.255Zm0,17.71c.215.233.246.438.094.617a.4.4,0,0,1-.577.054l-1.852-1.771q-.35-.483.067-.685a.547.547,0,0,1,.738.255Zm-.993-18.944.59-.482a.536.536,0,0,1,.67.04q.322.255-.026.577l-.59.51Zm0,17.71.59-.482a.536.536,0,0,1,.67.04q.322.255-.026.577l-.59.51Z"/>
    </g>
  </g>
</svg>
